<mxfile host="drawio-plugin" modified="2025-02-11T08:34:43.840Z" agent="Mozilla/5.0 (Windows NT 10.0; Win64; x64) AppleWebKit/537.36 (KHTML, like Gecko) Chrome/122.0.0.0 Safari/537.36" etag="uuiCoNV2puMO3504VPxr" version="22.1.22" type="embed">
  <diagram id="jo-RsGGePWbggPdhVCvR" name="Page-1">
    <mxGraphModel dx="856" dy="1763" grid="1" gridSize="10" guides="1" tooltips="1" connect="1" arrows="1" fold="1" page="1" pageScale="1" pageWidth="850" pageHeight="1100" math="0" shadow="0">
      <root>
        <mxCell id="0" />
        <mxCell id="1" parent="0" />
        <mxCell id="2" value="" style="rounded=1;whiteSpace=wrap;html=1;glass=0;shadow=0;fillColor=#EDEDED;" parent="1" vertex="1">
          <mxGeometry x="230" y="130" width="320" height="300" as="geometry" />
        </mxCell>
        <mxCell id="4" value="&lt;h1&gt;container&lt;/h1&gt;&lt;p style=&quot;font-size: 16px; line-height: 50%;&quot;&gt;&lt;font style=&quot;font-size: 16px;&quot;&gt;height&lt;/font&gt;&lt;/p&gt;&lt;p style=&quot;font-size: 16px; line-height: 50%;&quot;&gt;&lt;font style=&quot;font-size: 16px;&quot;&gt;overflow: auto;&lt;/font&gt;&lt;/p&gt;&lt;p style=&quot;font-size: 16px; line-height: 50%;&quot;&gt;&lt;font style=&quot;font-size: 16px;&quot;&gt;position: relative;&lt;/font&gt;&lt;/p&gt;" style="text;html=1;strokeColor=none;fillColor=none;spacing=5;spacingTop=-20;whiteSpace=wrap;overflow=hidden;rounded=0;" parent="1" vertex="1">
          <mxGeometry x="100" y="190" width="190" height="120" as="geometry" />
        </mxCell>
        <mxCell id="5" value="" style="rounded=1;whiteSpace=wrap;html=1;" parent="1" vertex="1">
          <mxGeometry x="250" y="-30" width="280" height="580" as="geometry" />
        </mxCell>
        <mxCell id="8" value="item" style="rounded=0;whiteSpace=wrap;html=1;fillColor=#fff2cc;strokeColor=#d6b656;" parent="1" vertex="1">
          <mxGeometry x="260" y="140" width="260" height="40" as="geometry" />
        </mxCell>
        <mxCell id="9" value="" style="rounded=0;whiteSpace=wrap;html=1;fillColor=#fff2cc;strokeColor=#d6b656;" parent="1" vertex="1">
          <mxGeometry x="260" y="190" width="260" height="40" as="geometry" />
        </mxCell>
        <mxCell id="10" value="" style="rounded=0;whiteSpace=wrap;html=1;fillColor=#fff2cc;strokeColor=#d6b656;" parent="1" vertex="1">
          <mxGeometry x="260" y="240" width="260" height="40" as="geometry" />
        </mxCell>
        <mxCell id="11" value="" style="rounded=0;whiteSpace=wrap;html=1;fillColor=#fff2cc;strokeColor=#d6b656;" parent="1" vertex="1">
          <mxGeometry x="260" y="290" width="260" height="40" as="geometry" />
        </mxCell>
        <mxCell id="12" value="" style="rounded=0;whiteSpace=wrap;html=1;fillColor=#fff2cc;strokeColor=#d6b656;" parent="1" vertex="1">
          <mxGeometry x="260" y="340" width="260" height="40" as="geometry" />
        </mxCell>
        <mxCell id="13" value="" style="rounded=0;whiteSpace=wrap;html=1;fillColor=#fff2cc;strokeColor=#d6b656;" parent="1" vertex="1">
          <mxGeometry x="260" y="390" width="260" height="40" as="geometry" />
        </mxCell>
        <mxCell id="14" value="" style="endArrow=classic;html=1;rounded=0;entryX=1;entryY=0.5;entryDx=0;entryDy=0;" parent="1" target="8" edge="1">
          <mxGeometry width="50" height="50" relative="1" as="geometry">
            <mxPoint x="580" y="130" as="sourcePoint" />
            <mxPoint x="610" y="290" as="targetPoint" />
          </mxGeometry>
        </mxCell>
        <mxCell id="15" value="&lt;h1&gt;phantom&lt;br&gt;&lt;/h1&gt;&lt;p style=&quot;font-size: 16px; line-height: 50%;&quot;&gt;&lt;font style=&quot;font-size: 16px;&quot;&gt;height&amp;nbsp;&lt;/font&gt;&lt;span style=&quot;background-color: initial;&quot;&gt;= itemSize Ã— Count&lt;/span&gt;&lt;/p&gt;&lt;p style=&quot;font-size: 16px; line-height: 50%;&quot;&gt;&lt;span style=&quot;background-color: initial;&quot;&gt;position: absolute;&lt;/span&gt;&lt;/p&gt;" style="text;html=1;strokeColor=none;fillColor=none;spacing=5;spacingTop=-20;whiteSpace=wrap;overflow=hidden;rounded=0;" parent="1" vertex="1">
          <mxGeometry x="270" width="230" height="100" as="geometry" />
        </mxCell>
        <mxCell id="16" value="&lt;font style=&quot;font-size: 14px;&quot;&gt;startIndex&lt;/font&gt;" style="text;html=1;align=center;verticalAlign=middle;resizable=0;points=[];autosize=1;strokeColor=none;fillColor=none;" parent="1" vertex="1">
          <mxGeometry x="580" y="110" width="80" height="30" as="geometry" />
        </mxCell>
        <mxCell id="17" value="" style="endArrow=classic;html=1;rounded=0;entryX=1;entryY=0.5;entryDx=0;entryDy=0;" parent="1" edge="1">
          <mxGeometry width="50" height="50" relative="1" as="geometry">
            <mxPoint x="580" y="390" as="sourcePoint" />
            <mxPoint x="520" y="420" as="targetPoint" />
          </mxGeometry>
        </mxCell>
        <mxCell id="18" value="&lt;span style=&quot;font-size: 14px;&quot;&gt;endIndex&lt;/span&gt;" style="text;html=1;align=center;verticalAlign=middle;resizable=0;points=[];autosize=1;strokeColor=none;fillColor=none;" parent="1" vertex="1">
          <mxGeometry x="580" y="370" width="80" height="30" as="geometry" />
        </mxCell>
        <mxCell id="19" value="" style="rounded=0;whiteSpace=wrap;html=1;fillColor=none;gradientColor=none;dashed=1;" vertex="1" parent="1">
          <mxGeometry x="260" y="140" width="260" height="290" as="geometry" />
        </mxCell>
        <mxCell id="20" value="&lt;h1&gt;content&lt;/h1&gt;&lt;p style=&quot;font-size: 16px; line-height: 50%;&quot;&gt;position: absolute;&lt;/p&gt;&lt;p style=&quot;font-size: 16px; line-height: 50%;&quot;&gt;translate3d: scrollTop - (scrollTop % itemSize)&lt;/p&gt;" style="text;html=1;strokeColor=none;fillColor=none;spacing=5;spacingTop=-20;whiteSpace=wrap;overflow=hidden;rounded=0;" vertex="1" parent="1">
          <mxGeometry x="590" y="220" width="340" height="100" as="geometry" />
        </mxCell>
      </root>
    </mxGraphModel>
  </diagram>
</mxfile>
